<svg width="173" height="173" viewBox="0 0 173 173" fill="none" xmlns="http://www.w3.org/2000/svg">
<path d="M16.0385 46.1663L79.9443 32.5828C81.8096 32.1863 83.7561 32.547 85.3557 33.5857L114.474 52.4956C116.073 53.5343 118.02 53.8949 119.886 53.4983L134.556 50.3801C138.441 49.5546 142.259 52.0343 143.085 55.9187L145.327 66.4689C146.153 70.3537 143.673 74.172 139.789 74.9979L114.568 80.3586C112.702 80.7551 110.756 80.3941 109.156 79.3558L80.0378 60.446C78.4382 59.4073 76.4917 59.0463 74.6264 59.4429L63.4725 61.8137" stroke="#333333" stroke-width="14.3815" stroke-linecap="round"/>
<path d="M156.54 119.221L92.634 132.804C90.7687 133.201 88.8222 132.84 87.2226 131.801L58.1041 112.892C56.5045 111.853 54.558 111.492 52.6927 111.889L38.0222 115.007C34.1376 115.833 30.3192 113.353 29.4935 109.468L27.251 98.9182C26.4253 95.0338 28.905 91.2151 32.7895 90.3896L58.0106 85.0286C59.8759 84.632 61.8224 84.993 63.422 86.0317L92.5405 104.941C94.1397 105.98 96.0862 106.341 97.9519 105.944L109.106 103.573" stroke="#333333" stroke-width="14.3815" stroke-linecap="round"/>
</svg>
