<svg width="249" height="284" viewBox="0 0 249 284" fill="none" xmlns="http://www.w3.org/2000/svg">
<path d="M23.1409 66.6101L115.346 47.0114C118.037 46.4393 120.846 46.9598 123.154 48.4585L165.167 75.7422C167.474 77.2409 170.283 77.7612 172.975 77.189L194.142 72.6899C199.746 71.4988 205.256 75.0766 206.447 80.6812L209.682 95.9034C210.874 101.508 207.296 107.018 201.692 108.209L165.302 115.944C162.611 116.516 159.802 115.995 157.494 114.497L115.481 87.2133C113.173 85.7146 110.365 85.1938 107.673 85.766L91.5802 89.1866" stroke="#333333" stroke-width="20.75" stroke-linecap="round"/>
<path d="M225.86 172.015L133.655 191.614C130.964 192.187 128.155 191.666 125.847 190.167L83.8343 162.883C81.5264 161.385 78.7179 160.864 76.0266 161.437L54.8595 165.936C49.2547 167.127 43.7454 163.549 42.5541 157.944L39.3184 142.722C38.1271 137.118 41.7049 131.608 47.3097 130.417L83.6994 122.682C86.3907 122.11 89.1992 122.63 91.5071 124.129L133.52 151.413C135.828 152.911 138.636 153.432 141.328 152.86L157.421 149.439" stroke="#333333" stroke-width="20.75" stroke-linecap="round"/>
<path d="M48.8438 233.406C47.5729 232.844 45.6562 232.562 43.0938 232.562C40.5312 232.562 38.4583 233.667 36.875 235.875C35.2917 238.083 34.5 241.969 34.5 247.531C34.5 253.073 35.2604 257.01 36.7812 259.344C38.3021 261.677 40.5521 262.844 43.5312 262.844C48.0938 262.844 52.1875 262.156 55.8125 260.781L58.125 266.469C53.6042 269.156 48.2917 270.5 42.1875 270.5C36.0833 270.5 31.6771 268.771 28.9688 265.312C26.2604 261.896 24.9062 256.25 24.9062 248.375C24.9062 240.521 26.5833 234.719 29.9375 230.969C33.2917 227.198 37.9896 225.312 44.0312 225.312C48.9062 225.312 53.5417 226.667 57.9375 229.375V230.812C57.9375 231.292 57.8646 232.031 57.7188 233.031C57.5938 234.01 57.3958 235.042 57.125 236.125C56.875 237.188 56.5625 238.094 56.1875 238.844H50.125C49.5208 237.656 49.0938 235.844 48.8438 233.406ZM61.2812 242.938L61.9062 238C64.3229 237.438 66.5521 237.156 68.5938 237.156C69.6146 237.156 70.5521 237.177 71.4062 237.219C72.2604 237.24 73.0417 237.292 73.75 237.375V262.906C75.4167 263.531 76.5938 264.25 77.2812 265.062L76.6562 270H61.9062L61.2812 265.062C61.8646 264.25 63.0417 263.531 64.8125 262.906V245.094C63.2917 244.594 62.1146 243.875 61.2812 242.938ZM111 245.438L100.438 270.375H93.4062L82.9062 245.438C80.7812 244.75 79.3542 243.917 78.625 242.938L79.25 238H94L94.625 242.938C94.0417 243.625 93.125 244.24 91.875 244.781L95.3438 254.438C95.7188 255.458 96.0417 256.469 96.3125 257.469C96.6042 258.448 96.8333 259.427 97 260.406L97.125 261.281H98.0312C98.3854 259.135 98.9792 256.896 99.8125 254.562L103.188 245.094C101.646 244.51 100.542 243.792 99.875 242.938L100.5 238H114.594L115.219 242.938C114.448 243.917 113.042 244.75 111 245.438ZM117.469 242.938L118.094 238C120.51 237.438 122.74 237.156 124.781 237.156C125.802 237.156 126.74 237.177 127.594 237.219C128.448 237.24 129.229 237.292 129.938 237.375V262.906C131.604 263.531 132.781 264.25 133.469 265.062L132.844 270H118.094L117.469 265.062C118.052 264.25 119.229 263.531 121 262.906V245.094C119.479 244.594 118.302 243.875 117.469 242.938ZM143 229.938H147.656V238H156.812V243.375H147.656V259.562C147.656 260.958 147.854 261.948 148.25 262.531C148.542 262.99 149.083 263.281 149.875 263.406C150.688 263.51 151.615 263.479 152.656 263.312C153.698 263.146 154.698 262.875 155.656 262.5L157.594 267.5C154.302 269.167 150.938 270 147.5 270C144.062 270 141.74 269.271 140.531 267.812C139.323 266.333 138.719 264.188 138.719 261.375V243.375H135.844L135.125 239.469C135.812 238.656 137.219 237.844 139.344 237.031C139.885 233.51 141.104 231.146 143 229.938ZM161.125 242.75C161.125 242.417 161.125 242.083 161.125 241.75C161.146 241.396 161.167 241.042 161.188 240.688C165.167 238.562 169.438 237.5 174 237.5C178.562 237.5 181.833 238.365 183.812 240.094C185.792 241.823 186.781 244.688 186.781 248.688V262.312C188.26 262.625 189.438 262.99 190.312 263.406V268.969C188.188 269.99 185.073 270.5 180.969 270.5C180.531 269.354 180.167 268.01 179.875 266.469C178.042 269.156 174.719 270.5 169.906 270.5C168.01 270.5 166.271 270.125 164.688 269.375C163.125 268.625 161.875 267.562 160.938 266.188C160 264.792 159.531 263.135 159.531 261.219C159.531 258.365 160.479 256.125 162.375 254.5C164.271 252.854 167.094 252.031 170.844 252.031H177.844V248.938C177.844 245.604 176.073 243.938 172.531 243.938C171.156 243.938 170.062 244.073 169.25 244.344C169.146 246.156 168.896 247.542 168.5 248.5H162.219C161.49 246.979 161.125 245.062 161.125 242.75ZM172.656 263.969C174.844 263.969 176.573 263.333 177.844 262.062V256.812H173.344C170.281 256.812 168.75 257.99 168.75 260.344C168.75 261.406 169.073 262.281 169.719 262.969C170.385 263.635 171.365 263.969 172.656 263.969ZM205.375 243.25C202.562 243.25 201.156 244.083 201.156 245.75C201.156 247.333 202.635 248.5 205.594 249.25L210.625 250.594C215.833 251.969 218.438 254.979 218.438 259.625C218.438 262.812 217.323 265.427 215.094 267.469C213.969 268.469 212.458 269.219 210.562 269.719C208.667 270.198 206.625 270.458 204.438 270.5C202.271 270.542 200.167 270.385 198.125 270.031C196.083 269.677 194.365 269.156 192.969 268.469C192.948 268.24 192.927 268.01 192.906 267.781C192.906 267.531 192.906 267.292 192.906 267.062C192.906 264.708 193.375 262.594 194.312 260.719H199.625C200.208 261.781 200.573 262.844 200.719 263.906C201.531 264.177 202.75 264.312 204.375 264.312C208.125 264.312 210 263.24 210 261.094C210 260.427 209.75 259.865 209.25 259.406C208.708 258.969 207.698 258.531 206.219 258.094L201.156 256.625C198.552 255.896 196.521 254.823 195.062 253.406C193.625 251.969 192.906 249.854 192.906 247.062C192.906 244.25 194.042 241.958 196.312 240.188C197.438 239.292 198.844 238.625 200.531 238.188C202.24 237.75 204.062 237.521 206 237.5C207.938 237.458 209.833 237.604 211.688 237.938C213.542 238.25 215.198 238.719 216.656 239.344C216.677 239.552 216.688 239.76 216.688 239.969C216.708 240.177 216.719 240.396 216.719 240.625C216.719 242.812 216.25 244.865 215.312 246.781H210.062C209.479 245.76 209.115 244.729 208.969 243.688C207.74 243.396 206.542 243.25 205.375 243.25Z" fill="#333333"/>
</svg>
